<svg xmlns="http://www.w3.org/2000/svg" aria-hidden="true" style="position:absolute;width:0;height:0;overflow:hidden">
  <defs>
    <symbol id="icon-arrow-left" viewBox="0 0 32 32">
      <path fill="none" stroke="#4501d7" stroke-linecap="round" stroke-linejoin="round" stroke-width="1.454" d="M10.667 16 16 10.667M10.667 16h10.667m-10.667 0L16 21.333M16 4a12 12 0 1 1 .002 24.003A12 12 0 0 1 16 3.998z" style="stroke:var(--color1, #4501d7)"/>
    </symbol>
    <symbol id="icon-arrow-left-filled" viewBox="0 0 31 32">
      <path fill="#4501d7" d="M15.645 3.28a13.038 13.038 0 0 1 .422 26.067l-.422.007-.422-.007A13.034 13.034 0 0 1 2.6 16.105 13.035 13.035 0 0 1 15.645 3.28zm.921 6.9a1.305 1.305 0 0 0-1.844 0l-5.215 5.215a1.145 1.145 0 0 0-.108.123l-.083.12-.068.128-.057.143-.039.146-.022.164-.004.098.005.117.009.076.033.154.046.137.07.147.056.091.093.124.07.076 5.215 5.215.123.108a1.304 1.304 0 0 0 1.72-1.952l-2.988-2.989h7.281l.153-.009a1.304 1.304 0 0 0-.152-2.599h-7.282l2.989-2.989.108-.123a1.301 1.301 0 0 0-.108-1.721z" style="fill:var(--color1, #4501d7)"/>
    </symbol>
    <symbol id="icon-arrow-right" viewBox="0 0 31 32">
      <path fill="none" stroke="#4501d7" stroke-linecap="round" stroke-linejoin="round" stroke-width="1.422" d="m20.859 16.317-5.215-5.215m5.215 5.215h-10.43m10.43 0-5.215 5.215m0-16.949a11.723 11.723 0 0 0-8.297 3.436 11.746 11.746 0 0 0-2.543 12.787 11.743 11.743 0 0 0 6.35 6.351A11.733 11.733 0 0 0 23.941 8.019a11.733 11.733 0 0 0-8.297-3.437z" style="stroke:var(--color1, #4501d7)"/>
    </symbol>
    <symbol id="icon-arrow-right-filled" viewBox="0 0 32 32">
      <path fill="#4501d7" d="M16 2.667A13.331 13.331 0 0 0 6.339 25.2a13.334 13.334 0 0 0 9.229 4.127l.432.007.432-.007A13.332 13.332 0 0 0 16 2.667zm-.943 7.057a1.333 1.333 0 0 1 1.886 0l5.333 5.333c.04.039.076.081.111.125l.085.123.069.131.059.147.04.149.023.168.004.1-.005.12-.009.077-.033.157-.047.14-.072.151-.057.093-.095.127-.072.077-5.333 5.333-.125.111a1.336 1.336 0 0 1-1.816-.173 1.335 1.335 0 0 1 .055-1.823l3.056-3.057h-7.447l-.156-.009a1.336 1.336 0 0 1-1.174-1.402 1.333 1.333 0 0 1 1.33-1.255h7.448l-3.057-3.057-.111-.125a1.331 1.331 0 0 1 .111-1.76z" style="fill:var(--color1, #4501d7)"/>
    </symbol>
    <symbol id="icon-close" viewBox="0 0 32 32">
      <path fill="none" stroke="#7738ff" stroke-linecap="round" stroke-linejoin="round" stroke-width="2.667" d="M6.667 6.667 16 16m0 0 9.333-9.333M16 16l-9.333 9.333M16 16l9.333 9.333" style="stroke:var(--color2, #7738ff)"/>
    </symbol>
    <symbol id="icon-email" viewBox="0 0 32 32">
      <path fill="#fff" d="M29.333 8c0-1.467-1.2-2.667-2.667-2.667H5.333A2.675 2.675 0 0 0 2.666 8v16c0 1.467 1.2 2.667 2.667 2.667h21.333c1.467 0 2.667-1.2 2.667-2.667V8zm-2.666 0L16 14.667 5.333 8h21.333zm0 16H5.334V10.667l10.667 6.667 10.667-6.667V24z" style="fill:var(--color3, #fff)"/>
    </symbol>
    <symbol id="icon-menu" viewBox="0 0 32 32">
      <path stroke-linecap="round" stroke-linejoin="round" stroke-width="2.182" d="M6.667 6.667h18.667M6.667 16h18.667M6.667 25.333h18.667"/>
    </symbol>
    <symbol id="icon-sign" viewBox="0 0 15 32">
      <path fill="none" stroke="#fff" stroke-linecap="round" stroke-linejoin="round" stroke-width="1.818" d="M5.706 30.661V16.516c0-1.467.003-2.76.009-3.898a58.798 58.798 0 0 1-1.545-1.493 50.598 50.598 0 0 1-2.293-2.431 1.652 1.652 0 0 1 0-2.208A50.325 50.325 0 0 1 4.17 4.054a50.153 50.153 0 0 1 2.432-2.293 1.651 1.651 0 0 1 2.206 0 50.153 50.153 0 0 1 2.432 2.293 50.153 50.153 0 0 1 2.293 2.432 1.651 1.651 0 0 1 0 2.206 50.175 50.175 0 0 1-2.293 2.433 58.798 58.798 0 0 1-1.545 1.493c.007 1.139.01 2.431.01 3.898v14.145" style="stroke:var(--color3, #fff)"/>
    </symbol>
  </defs>
</svg>
